<svg version="1.2" xmlns="http://www.w3.org/2000/svg" viewBox="0 0 842 595" width="842" height="595"><defs><linearGradient id="P" gradientUnits="userSpaceOnUse"/><radialGradient id="g1" cx="0" cy="0" r="1" href="#P" gradientTransform="matrix(96.739,0,0,96.739,505.563,368.155)"><stop stop-color="#edd788"/><stop offset=".57" stop-color="#ecbb0d"/><stop offset="1" stop-color="#c3922e"/></radialGradient><radialGradient id="g2" cx="0" cy="0" r="1" href="#P" gradientTransform="matrix(4.476,0,0,4.476,380.703,366.719)"><stop stop-color="#edd788"/><stop offset=".57" stop-color="#ecbb0d"/><stop offset="1" stop-color="#c3922e"/></radialGradient><radialGradient id="g3" cx="0" cy="0" r="1" href="#P" gradientTransform="matrix(4.391,0,0,4.391,392.276,368.208)"><stop stop-color="#edd788"/><stop offset=".57" stop-color="#ecbb0d"/><stop offset="1" stop-color="#c3922e"/></radialGradient><radialGradient id="g4" cx="0" cy="0" r="1" href="#P" gradientTransform="matrix(4.611,0,0,4.611,403.85,367.287)"><stop stop-color="#edd788"/><stop offset=".57" stop-color="#ecbb0d"/><stop offset="1" stop-color="#c3922e"/></radialGradient><radialGradient id="g5" cx="0" cy="0" r="1" href="#P" gradientTransform="matrix(4.459,0,0,4.459,415.424,368.294)"><stop stop-color="#edd788"/><stop offset=".57" stop-color="#ecbb0d"/><stop offset="1" stop-color="#c3922e"/></radialGradient><radialGradient id="g6" cx="0" cy="0" r="1" href="#P" gradientTransform="matrix(3.899,0,0,3.899,426.997,368.208)"><stop stop-color="#edd788"/><stop offset=".57" stop-color="#ecbb0d"/><stop offset="1" stop-color="#c3922e"/></radialGradient><radialGradient id="g7" cx="0" cy="0" r="1" href="#P" gradientTransform="matrix(4.61,0,0,4.61,438.571,366.543)"><stop stop-color="#edd788"/><stop offset=".57" stop-color="#ecbb0d"/><stop offset="1" stop-color="#c3922e"/></radialGradient><radialGradient id="g8" cx="0" cy="0" r="1" href="#P" gradientTransform="matrix(4.617,0,0,4.617,450.144,368.294)"><stop stop-color="#edd788"/><stop offset=".57" stop-color="#ecbb0d"/><stop offset="1" stop-color="#c3922e"/></radialGradient><radialGradient id="g9" cx="0" cy="0" r="1" href="#P" gradientTransform="matrix(3.899,0,0,3.899,461.718,368.208)"><stop stop-color="#edd788"/><stop offset=".57" stop-color="#ecbb0d"/><stop offset="1" stop-color="#c3922e"/></radialGradient><radialGradient id="g10" cx="0" cy="0" r="1" href="#P" gradientTransform="matrix(5.689,0,0,5.689,483.758,366.719)"><stop stop-color="#edd788"/><stop offset=".57" stop-color="#ecbb0d"/><stop offset="1" stop-color="#c3922e"/></radialGradient><radialGradient id="g11" cx="0" cy="0" r="1" href="#P" gradientTransform="matrix(4.459,0,0,4.459,498.705,368.294)"><stop stop-color="#edd788"/><stop offset=".57" stop-color="#ecbb0d"/><stop offset="1" stop-color="#c3922e"/></radialGradient><radialGradient id="g12" cx="0" cy="0" r="1" href="#P" gradientTransform="matrix(4.186,0,0,4.186,511.742,368.294)"><stop stop-color="#edd788"/><stop offset=".57" stop-color="#ecbb0d"/><stop offset="1" stop-color="#c3922e"/></radialGradient><radialGradient id="g13" cx="0" cy="0" r="1" href="#P" gradientTransform="matrix(4.61,0,0,4.61,522.005,366.543)"><stop stop-color="#edd788"/><stop offset=".57" stop-color="#ecbb0d"/><stop offset="1" stop-color="#c3922e"/></radialGradient><radialGradient id="g14" cx="0" cy="0" r="1" href="#P" gradientTransform="matrix(5.814,0,0,5.814,532.883,370.324)"><stop stop-color="#edd788"/><stop offset=".57" stop-color="#ecbb0d"/><stop offset="1" stop-color="#c3922e"/></radialGradient><radialGradient id="g15" cx="0" cy="0" r="1" href="#P" gradientTransform="matrix(4.391,0,0,4.391,547.081,368.208)"><stop stop-color="#edd788"/><stop offset=".57" stop-color="#ecbb0d"/><stop offset="1" stop-color="#c3922e"/></radialGradient><radialGradient id="g16" cx="0" cy="0" r="1" href="#P" gradientTransform="matrix(5.359,0,0,5.359,569.638,366.715)"><stop stop-color="#edd788"/><stop offset=".57" stop-color="#ecbb0d"/><stop offset="1" stop-color="#c3922e"/></radialGradient><radialGradient id="g17" cx="0" cy="0" r="1" href="#P" gradientTransform="matrix(4.611,0,0,4.611,581.394,367.287)"><stop stop-color="#edd788"/><stop offset=".57" stop-color="#ecbb0d"/><stop offset="1" stop-color="#c3922e"/></radialGradient><radialGradient id="g18" cx="0" cy="0" r="1" href="#P" gradientTransform="matrix(4.393,0,0,4.393,593.151,368.38)"><stop stop-color="#edd788"/><stop offset=".57" stop-color="#ecbb0d"/><stop offset="1" stop-color="#c3922e"/></radialGradient><radialGradient id="g19" cx="0" cy="0" r="1" href="#P" gradientTransform="matrix(5.619,0,0,5.619,604.908,366.401)"><stop stop-color="#edd788"/><stop offset=".57" stop-color="#ecbb0d"/><stop offset="1" stop-color="#c3922e"/></radialGradient><radialGradient id="g20" cx="0" cy="0" r="1" href="#P" gradientTransform="matrix(4.61,0,0,4.61,616.665,366.543)"><stop stop-color="#edd788"/><stop offset=".57" stop-color="#ecbb0d"/><stop offset="1" stop-color="#c3922e"/></radialGradient><radialGradient id="g21" cx="0" cy="0" r="1" href="#P" gradientTransform="matrix(4.617,0,0,4.617,628.421,368.294)"><stop stop-color="#edd788"/><stop offset=".57" stop-color="#ecbb0d"/><stop offset="1" stop-color="#c3922e"/></radialGradient><radialGradient id="g22" cx="0" cy="0" r="1" href="#P" gradientTransform="matrix(11.182,0,0,11.182,378.783,325.811)"><stop stop-color="#edd788"/><stop offset=".57" stop-color="#ecbb0d"/><stop offset="1" stop-color="#c3922e"/></radialGradient><radialGradient id="g23" cx="0" cy="0" r="1" href="#P" gradientTransform="matrix(11.912,0,0,11.912,415.305,325.776)"><stop stop-color="#edd788"/><stop offset=".57" stop-color="#ecbb0d"/><stop offset="1" stop-color="#c3922e"/></radialGradient><radialGradient id="g24" cx="0" cy="0" r="1" href="#P" gradientTransform="matrix(11.785,0,0,11.785,451.827,325.846)"><stop stop-color="#edd788"/><stop offset=".57" stop-color="#ecbb0d"/><stop offset="1" stop-color="#c3922e"/></radialGradient><radialGradient id="g25" cx="0" cy="0" r="1" href="#P" gradientTransform="matrix(11.182,0,0,11.182,488.349,325.811)"><stop stop-color="#edd788"/><stop offset=".57" stop-color="#ecbb0d"/><stop offset="1" stop-color="#c3922e"/></radialGradient><radialGradient id="g26" cx="0" cy="0" r="1" href="#P" gradientTransform="matrix(10.67,0,0,10.67,524.872,325.62)"><stop stop-color="#edd788"/><stop offset=".57" stop-color="#ecbb0d"/><stop offset="1" stop-color="#c3922e"/></radialGradient><radialGradient id="g27" cx="0" cy="0" r="1" href="#P" gradientTransform="matrix(10.782,0,0,10.782,561.394,325.447)"><stop stop-color="#edd788"/><stop offset=".57" stop-color="#ecbb0d"/><stop offset="1" stop-color="#c3922e"/></radialGradient><radialGradient id="g28" cx="0" cy="0" r="1" href="#P" gradientTransform="matrix(10.627,0,0,10.627,597.916,325.603)"><stop stop-color="#edd788"/><stop offset=".57" stop-color="#ecbb0d"/><stop offset="1" stop-color="#c3922e"/></radialGradient><radialGradient id="g29" cx="0" cy="0" r="1" href="#P" gradientTransform="matrix(10.371,0,0,10.371,634.438,325.759)"><stop stop-color="#edd788"/><stop offset=".57" stop-color="#ecbb0d"/><stop offset="1" stop-color="#c3922e"/></radialGradient><radialGradient id="g30" cx="0" cy="0" r="1" href="#P" gradientTransform="matrix(32.546,0,0,32.546,398.002,263.63)"><stop stop-color="#edd788"/><stop offset=".57" stop-color="#ecbb0d"/><stop offset="1" stop-color="#c3922e"/></radialGradient><radialGradient id="g31" cx="0" cy="0" r="1" href="#P" gradientTransform="matrix(34.636,0,0,34.636,504.748,264.348)"><stop stop-color="#edd788"/><stop offset=".57" stop-color="#ecbb0d"/><stop offset="1" stop-color="#c3922e"/></radialGradient><radialGradient id="g32" cx="0" cy="0" r="1" href="#P" gradientTransform="matrix(33.277,0,0,33.277,611.495,264.707)"><stop stop-color="#edd788"/><stop offset=".57" stop-color="#ecbb0d"/><stop offset="1" stop-color="#c3922e"/></radialGradient><radialGradient id="g33" cx="0" cy="0" r="1" href="#P" gradientTransform="matrix(6.333,0,0,6.333,451.375,264.283)"><stop stop-color="#edd788"/><stop offset=".57" stop-color="#ecbb0d"/><stop offset="1" stop-color="#c3922e"/></radialGradient><radialGradient id="g34" cx="0" cy="0" r="1" href="#P" gradientTransform="matrix(6.333,0,0,6.333,558.122,264.283)"><stop stop-color="#edd788"/><stop offset=".57" stop-color="#ecbb0d"/><stop offset="1" stop-color="#c3922e"/></radialGradient><radialGradient id="g35" cx="0" cy="0" r="1" href="#P" gradientTransform="matrix(40.944,0,0,40.944,270.354,216.623)"><stop stop-color="#edd788"/><stop offset=".57" stop-color="#ecbb0d"/><stop offset="1" stop-color="#c3922e"/></radialGradient><radialGradient id="g36" cx="0" cy="0" r="1" href="#P" gradientTransform="matrix(40.944,0,0,40.944,270.354,392.255)"><stop stop-color="#edd788"/><stop offset=".57" stop-color="#ecbb0d"/><stop offset="1" stop-color="#c3922e"/></radialGradient><radialGradient id="g37" cx="0" cy="0" r="1" href="#P" gradientTransform="matrix(36.922,0,0,36.922,310.255,256.346)"><stop stop-color="#edd788"/><stop offset=".57" stop-color="#ecbb0d"/><stop offset="1" stop-color="#c3922e"/></radialGradient><radialGradient id="g38" cx="0" cy="0" r="1" href="#P" gradientTransform="matrix(80.282,0,0,80.282,270.354,304.613)"><stop stop-color="#edd788"/><stop offset=".57" stop-color="#ecbb0d"/><stop offset="1" stop-color="#c3922e"/></radialGradient></defs><style>.a{fill:url(#g1)}.b{fill:url(#g2)}.c{fill:url(#g3)}.d{fill:url(#g4)}.e{fill:url(#g5)}.f{fill:url(#g6)}.g{fill:url(#g7)}.h{fill:url(#g8)}.i{fill:url(#g9)}.j{fill:url(#g10)}.k{fill:url(#g11)}.l{fill:url(#g12)}.m{fill:url(#g13)}.n{fill:url(#g14)}.o{fill:url(#g15)}.p{fill:url(#g16)}.q{fill:url(#g17)}.r{fill:url(#g18)}.s{fill:url(#g19)}.t{fill:url(#g20)}.u{fill:url(#g21)}.v{fill:url(#g22)}.w{fill:url(#g23)}.x{fill:url(#g24)}.y{fill:url(#g25)}.z{fill:url(#g26)}.A{fill:url(#g27)}.B{fill:url(#g28)}.C{fill:url(#g29)}.D{fill:url(#g30)}.E{fill:url(#g31)}.F{fill:url(#g32)}.G{fill:url(#g33)}.H{fill:url(#g34)}.I{fill:url(#g35)}.J{fill:url(#g36)}.K{fill:url(#g37)}.L{fill:url(#g38)}</style><path fill-rule="evenodd" class="a" d="m641.5 383.5h-271.9v-30.7h271.9zm-269.6-28.3v26h267.3v-26z"/><path class="b" d="m380 373v-12.6h1.4v12.6z"/><path class="c" d="m394.8 373v-6.1q0-1.1-0.5-1.7-0.6-0.6-1.7-0.6-1.5 0-2.1 0.8-0.7 0.8-0.7 2.7v4.9h-1.5v-9.4h1.2l0.2 1.3h0.1q0.4-0.7 1.2-1.1 0.8-0.4 1.8-0.4 1.7 0 2.6 0.8 0.8 0.9 0.8 2.7v6.1z"/><path class="d" d="m405.4 372q0.3 0 0.7-0.1 0.3 0 0.5-0.1v1.1q-0.2 0.1-0.6 0.2-0.5 0.1-0.9 0.1-2.7 0-2.7-2.9v-5.6h-1.3v-0.7l1.3-0.6 0.6-2h0.8v2.2h2.8v1.1h-2.8v5.5q0 0.9 0.4 1.3 0.4 0.5 1.2 0.5z"/><path fill-rule="evenodd" class="e" d="m415.9 373.2q-2 0-3.3-1.3-1.2-1.3-1.2-3.5 0-2.3 1.2-3.7 1.1-1.3 3-1.3 1.7 0 2.8 1.2 1 1.1 1 3v1h-6.5q0.1 1.6 0.9 2.5 0.8 0.8 2.2 0.8 1.5 0 3-0.6v1.3q-0.8 0.3-1.4 0.4-0.7 0.2-1.7 0.2zm-0.3-8.6q-1.2 0-1.9 0.7-0.6 0.8-0.7 2.1h4.9q0-1.4-0.6-2.1-0.6-0.7-1.7-0.7z"/><path class="f" d="m428.6 363.4q0.6 0 1.1 0.1l-0.2 1.3q-0.6-0.1-1-0.1-1.2 0-2 0.9-0.8 1-0.8 2.3v5.1h-1.4v-9.4h1.2l0.1 1.7h0.1q0.5-0.9 1.3-1.4 0.7-0.5 1.6-0.5z"/><path class="g" d="m437.7 361q0-0.5 0.3-0.7 0.2-0.2 0.6-0.2 0.3 0 0.6 0.2 0.2 0.2 0.2 0.7 0 0.5-0.2 0.7-0.3 0.3-0.6 0.3-0.4 0-0.6-0.3-0.3-0.2-0.3-0.7zm1.6 12h-1.5v-9.4h1.5z"/><path fill-rule="evenodd" class="h" d="m454.5 368.3q0 2.3-1.2 3.6-1.1 1.3-3.2 1.3-1.3 0-2.2-0.6-1-0.6-1.6-1.7-0.5-1.1-0.5-2.6 0-2.3 1.2-3.6 1.1-1.3 3.2-1.3 1.9 0 3.1 1.3 1.2 1.3 1.2 3.6zm-7.2 0q0 1.8 0.7 2.7 0.7 1 2.1 1 1.4 0 2.2-1 0.7-0.9 0.7-2.7 0-1.8-0.7-2.7-0.8-1-2.2-1-1.4 0-2.1 0.9-0.7 1-0.7 2.8z"/><path class="i" d="m463.3 363.4q0.6 0 1.1 0.1l-0.2 1.3q-0.6-0.1-1-0.1-1.1 0-2 0.9-0.8 1-0.8 2.3v5.1h-1.4v-9.4h1.2l0.1 1.7h0.1q0.5-0.9 1.3-1.4 0.7-0.5 1.6-0.5z"/><path fill-rule="evenodd" class="j" d="m488.8 366.6q0 3.1-1.7 4.8-1.7 1.6-4.9 1.6h-3.5v-12.6h3.9q2.9 0 4.6 1.7 1.6 1.6 1.6 4.5zm-1.6 0.1q0-2.5-1.2-3.8-1.2-1.2-3.7-1.2h-2.1v10h1.8q2.6 0 3.9-1.2 1.3-1.3 1.3-3.8z"/><path fill-rule="evenodd" class="k" d="m499.2 373.2q-2.1 0-3.3-1.3-1.2-1.3-1.2-3.5 0-2.3 1.1-3.7 1.2-1.3 3.1-1.3 1.7 0 2.8 1.2 1 1.1 1 3v1h-6.5q0 1.6 0.8 2.5 0.8 0.8 2.3 0.8 1.5 0 3-0.6v1.3q-0.8 0.3-1.4 0.4-0.7 0.2-1.7 0.2zm-0.4-8.6q-1.1 0-1.8 0.7-0.6 0.8-0.8 2.1h5q0-1.4-0.6-2.1-0.6-0.7-1.8-0.7z"/><path class="l" d="m515.1 370.4q0 1.4-1 2.1-1 0.7-2.7 0.7-1.9 0-3-0.6v-1.3q0.7 0.3 1.5 0.5 0.8 0.2 1.5 0.2 1.1 0 1.7-0.4 0.6-0.3 0.6-1 0-0.6-0.5-1-0.4-0.4-1.8-0.9-1.3-0.5-1.9-0.9-0.6-0.3-0.8-0.8-0.3-0.5-0.3-1.1 0-1.2 0.9-1.8 1-0.7 2.6-0.7 1.5 0 3 0.6l-0.5 1.2q-1.4-0.6-2.6-0.6-1 0-1.5 0.3-0.5 0.3-0.5 0.9 0 0.4 0.2 0.6 0.1 0.3 0.6 0.6 0.4 0.2 1.6 0.6 1.7 0.7 2.3 1.3 0.6 0.6 0.6 1.5z"/><path class="m" d="m521.2 361q0-0.5 0.2-0.7 0.2-0.2 0.6-0.2 0.3 0 0.6 0.2 0.2 0.2 0.2 0.7 0 0.5-0.2 0.7-0.3 0.3-0.6 0.3-0.4 0-0.6-0.3-0.2-0.2-0.2-0.7zm1.5 12h-1.4v-9.4h1.4z"/><path fill-rule="evenodd" class="n" d="m537.3 363.6v0.9l-1.7 0.2q0.2 0.3 0.4 0.8 0.2 0.5 0.2 1.1 0 1.4-0.9 2.2-1 0.8-2.6 0.8-0.5 0-0.8-0.1-0.9 0.5-0.9 1.3 0 0.3 0.3 0.5 0.3 0.2 1.1 0.2h1.6q1.6 0 2.4 0.7 0.8 0.6 0.8 1.8 0 1.6-1.2 2.4-1.3 0.8-3.7 0.8-1.9 0-2.9-0.6-1-0.7-1-2 0-0.9 0.6-1.5 0.5-0.6 1.5-0.8-0.3-0.2-0.6-0.5-0.2-0.4-0.2-0.8 0-0.6 0.3-0.9 0.2-0.4 0.8-0.8-0.7-0.3-1.2-1-0.4-0.7-0.4-1.7 0-1.5 0.9-2.4 0.9-0.8 2.6-0.8 0.8 0 1.4 0.2zm-7.5 11q0 0.8 0.6 1.2 0.6 0.3 1.8 0.3 1.8 0 2.7-0.5 0.9-0.5 0.9-1.4 0-0.8-0.5-1.1-0.5-0.3-1.8-0.3h-1.7q-1 0-1.5 0.5-0.5 0.4-0.5 1.3zm0.7-8q0 1 0.6 1.5 0.5 0.5 1.5 0.5 2.1 0 2.1-2 0-2.2-2.1-2.2-1 0-1.5 0.6-0.6 0.5-0.6 1.6z"/><path class="o" d="m549.6 373v-6.1q0-1.1-0.5-1.7-0.6-0.6-1.7-0.6-1.5 0-2.1 0.8-0.7 0.8-0.7 2.7v4.9h-1.5v-9.4h1.2l0.2 1.3h0.1q0.4-0.7 1.2-1.1 0.8-0.4 1.8-0.4 1.7 0 2.6 0.8 0.8 0.9 0.8 2.7v6.1z"/><path class="p" d="m573.6 369.7q0 1.6-1.2 2.6-1.2 0.9-3.3 0.9-2.2 0-3.4-0.6v-1.4q0.8 0.3 1.7 0.5 0.9 0.2 1.8 0.2 1.4 0 2.2-0.6 0.7-0.5 0.7-1.5 0-0.7-0.2-1.1-0.3-0.4-0.9-0.7-0.6-0.4-1.9-0.8-1.8-0.7-2.5-1.5-0.8-0.9-0.8-2.3 0-1.4 1.1-2.3 1.1-0.8 2.9-0.8 1.9 0 3.5 0.6l-0.5 1.3q-1.5-0.6-3-0.6-1.2 0-1.8 0.5-0.7 0.5-0.7 1.3 0 0.7 0.3 1.1 0.2 0.4 0.8 0.8 0.5 0.3 1.7 0.7 2 0.8 2.8 1.6 0.7 0.8 0.7 2.1z"/><path class="q" d="m582.9 372q0.4 0 0.7-0.1 0.4 0 0.6-0.1v1.1q-0.2 0.1-0.7 0.2-0.4 0.1-0.8 0.1-2.7 0-2.7-2.9v-5.6h-1.4v-0.7l1.4-0.6 0.6-2h0.8v2.2h2.7v1.1h-2.7v5.5q0 0.9 0.4 1.3 0.4 0.5 1.1 0.5z"/><path class="r" d="m590.7 363.6v6.1q0 1.1 0.5 1.7 0.5 0.6 1.6 0.6 1.5 0 2.2-0.8 0.7-0.8 0.7-2.7v-4.9h1.4v9.4h-1.2l-0.2-1.3h-0.1q-0.4 0.7-1.2 1.1-0.8 0.4-1.8 0.4-1.7 0-2.5-0.8-0.9-0.9-0.9-2.7v-6.1z"/><path fill-rule="evenodd" class="s" d="m607.7 371.7h-0.1q-1 1.5-2.9 1.5-1.9 0-2.9-1.3-1-1.2-1-3.6 0-2.3 1-3.6 1-1.3 2.9-1.3 1.9 0 2.9 1.4h0.1v-0.7l-0.1-0.6v-3.9h1.5v13.4h-1.2zm-2.9 0.2q1.5 0 2.2-0.7 0.6-0.8 0.6-2.6v-0.3q0-2-0.7-2.9-0.6-0.8-2.1-0.8-1.2 0-1.9 0.9-0.7 1-0.7 2.8 0 1.8 0.7 2.7 0.7 0.9 1.9 0.9z"/><path class="t" d="m615.8 361q0-0.5 0.3-0.7 0.2-0.2 0.6-0.2 0.3 0 0.6 0.2 0.2 0.2 0.2 0.7 0 0.5-0.2 0.7-0.3 0.3-0.6 0.3-0.4 0-0.6-0.3-0.3-0.2-0.3-0.7zm1.6 12h-1.5v-9.4h1.5z"/><path fill-rule="evenodd" class="u" d="m632.8 368.3q0 2.3-1.2 3.6-1.2 1.3-3.2 1.3-1.3 0-2.3-0.6-0.9-0.6-1.5-1.7-0.5-1.1-0.5-2.6 0-2.3 1.1-3.6 1.2-1.3 3.2-1.3 2 0 3.2 1.3 1.2 1.3 1.2 3.6zm-7.2 0q0 1.8 0.7 2.7 0.7 1 2.1 1 1.4 0 2.1-1 0.8-0.9 0.8-2.7 0-1.8-0.8-2.7-0.7-1-2.1-1-1.4 0-2.1 0.9-0.7 1-0.7 2.8z"/><path class="v" d="m380.7 315.4c-3.7 0-9.1 3.1-9.1 10.4 0 7.1 4.8 10.5 8.3 10.5 3.3 0 5.4-1 6.9-3.9 1 0 1.6 0.8 1.6 1.7 0 2.6-4.1 4-8.3 4-4.6 0-11.3-3.2-11.3-12.2 0-9.3 7.1-12.3 11.9-12.3 4.9 0 8.1 1.3 8.1 4.2 0 2-1.2 2.9-1.8 2.9q-0.2 0-0.3-0.1c0-4.2-2.5-5.2-6-5.2z"/><path fill-rule="evenodd" class="w" d="m403.8 325.8c0-7.1 4.2-12.3 11.4-12.3 7.7 0 11.6 5.5 11.6 12.3 0 6.6-4.1 12.3-11.5 12.3-6.5 0-11.5-5.5-11.5-12.3zm11.6 10.5c5.4 0 8.6-4.6 8.6-10.5 0-5.9-3.1-10.7-8.9-10.7-5.9 0-8.4 5.4-8.5 10.7 0 5.6 3.2 10.5 8.8 10.5z"/><path class="x" d="m443 317c0-0.9-0.4-2-2.3-2h-0.6v-1h3c2.6 0 3.4 1.2 4.6 2.8l10.9 16.2v-16c0-1.2-0.5-2-1.6-2h-1.2v-1h7.7v1h-0.9c-1.4 0-1.7 1-1.7 1.7v17.6c0 1.8 1.1 2.7 1.4 2.7-0.6 0.7-1.5 0.7-2.2 0.7-0.6 0-1.4-0.3-1.9-1.1-0.9-1.1-12.9-18.6-12.9-18.6v16.2c0 0.9 0.4 2.2 2.1 2.2h1v1.1h-8.1v-1.1h0.8c1.3 0 1.9-0.9 1.9-2z"/><path class="y" d="m490.2 315.4c-3.6 0-9.1 3.1-9.1 10.4 0 7.1 4.8 10.5 8.4 10.5 3.3 0 5.4-1 6.9-3.9 1 0 1.6 0.8 1.6 1.7 0 2.6-4.2 4-8.3 4-4.7 0-11.4-3.2-11.4-12.2 0-9.3 7.1-12.3 12-12.3 4.9 0 8.1 1.3 8.1 4.2 0 2-1.2 2.9-1.9 2.9q-0.1 0-0.3-0.1c0-4.2-2.5-5.2-6-5.2z"/><path class="z" d="m533.3 317.1c0 1.3-0.9 2.7-2.1 2.7 0-3.1-1.1-4.5-5-4.5-2.2 0-5.4 0.2-5.4 1.7v7.3h6c1.7 0 2 0.8 2 1.3 0 1-1.3 2-2.2 2 0-0.9-0.7-1.5-2.3-1.5h-3.5v8.5c0 1.3 3.4 1.3 5.8 1.3 4.6 0 5.7-3.4 5.7-4 1.1 0 1.9 1 1.9 2 0 3-3.4 3.6-6.8 3.6h-11.9v-1.3h1.2c0.7 0 1.6-0.4 1.6-1.5v-18.1c0-0.6-0.2-1.6-1.6-1.6h-1.1v-1h4.9c1.7 0 6.6-0.2 8.4-0.2 3.6 0 4.3 0.9 4.4 3.3z"/><path class="A" d="m570.8 321.2c0 4.3-3.5 7.7-7.9 7.7-1.8 0-3.7-0.6-3.7-2 0-0.7 0.7-1.3 1.4-1.3 0 0.4 0.6 1.7 2.5 1.7 3.4 0 5.1-3 5.1-6 0-2.8-1.5-6.3-6.4-6.3-1.5 0-3.5 0.5-4.3 1.2v18.1c0 1.8 1.4 2.1 2.5 2.1h0.9v1.1h-8.9v-1.1h1.1c1.1 0 1.9-0.7 1.9-1.6v-17.9c0-1.2-0.8-1.9-2.1-1.9h-0.9v-1h2.9c3.3-0.1 4.7-0.6 7.4-0.6 6.4 0 8.5 3.8 8.5 7.8z"/><path class="B" d="m605.8 318.9c0-3.5-3.2-3.5-5.3-3.5-1.1 0-1.3 0.8-1.3 1.5v17.5c0 1.1 0.8 2 2.1 2h1.3v1.1h-9.3v-1.1h1.2c1 0 2.1-0.7 2.1-2v-17.4c0-0.9-0.2-1.6-1.4-1.6-4.5 0-5.1 2.1-5.4 2.9-0.5 0-1.1-1.2-1.1-2.2 0-0.5 0-1.4 1-1.9 0.8-0.4 2.1-0.4 3.2-0.4 1.3 0 2.6 0.1 5 0.1 0.7 0 6.3-0.2 7.3-0.2 1.6 0 1.9 1 1.9 1.7 0 1-0.1 3.5-1.3 3.5z"/><path class="C" d="m627.3 319.4c0-2.7 2.5-5.9 7.3-5.9 4.8 0 7.1 2.3 7.1 4.6 0 2.2-1.4 2.8-2.3 2.8 0-4.4-1.9-5.8-4.8-5.8-2.7 0-4.8 1.8-4.8 4.2 0 6 12.7 5 12.7 12.5 0 3.2-3.1 6.2-8.4 6.2-5.4 0-7.7-2.8-7.7-4.8 0-2.2 1.9-2.5 1.9-2.5 0 0 0.4 5.6 6.2 5.6 4.7 0 5.5-3.1 5.5-4.2 0-1.2-0.2-2.9-5.8-5.2-6.2-2.7-6.9-5.1-6.9-7.5z"/><path fill-rule="evenodd" class="D" d="m414.3 261.7c6.1 1.6 13.1 7 13.1 17.2 0 11.1-7.5 20.2-24.5 20.2h-34.3v-3.1h2.7c3.9 0 5.5-2.6 5.5-4.8v-53.9c0-3.1-2.1-4.6-4.5-4.6h-3.7v-3.1h9.9c3.4 0 6.8-0.4 9.9-0.7 3.3-0.4 6.9-0.7 11.1-0.7 19.1 0 24.4 9.8 24.4 18.9 0 7.7-4 11.9-9.6 14.6zm5.1 17.9c0-5.3-2.5-13.7-13.1-13.7-2 0-5.4 0.7-7.5 0.7-3.1 0-4.8-1.3-4.8-3.9 0-1.5 1.5-2.8 1.5-2.8 0 0 4.3 0.5 6.7 0.5 8.2 0 13.7-5.5 13.7-12.7 0-6.5-2.9-14.7-18.4-14.7-3.9 0-10 0.8-13.3 2.7v56c0.3 0.3 2.8 2.5 17.2 2.5 13.4 0 18-8.8 18-14.6z"/><path class="E" d="m530.5 237.5v52.6c0 2.7 1.2 5.9 5.3 5.9h3.5v3.1h-24.4v-3.1h2.7c5 0 5.4-4.7 5.4-5.9v-23.1c0-0.9-0.2-1.7-1.6-1.9h-34.3c-1.3 0-1.3 1.8-1.3 1.8v23.2c0 2.8 1.1 5.9 4.9 5.9h3.2v3.1h-23.7v-3.1h3.1c3.7 0 5-2.7 5-5.9v-52.3c0-3-1.4-5.2-4.7-5.2h-3.4v-3h23.7v3h-3.7c-3.5 0-4.4 2.9-4.4 4.9v20c0 0 0 1.9 1.3 1.9h34.3c1.4 0 1.6-1.3 1.6-1.8v-19.8c0-3.3-1.8-5.2-4.4-5.2h-3.7v-3h24.4v3h-3.8c-2.9 0-5 2-5 4.9z"/><path class="F" d="m642.9 295v0.6c0 2.8-2.2 4.2-6.1 4.2-5.3 0-7.7-4.6-11.1-11.3-4.3-8.7-11.1-22.6-23.2-22.6-3.7 0-6.8 0.8-6.8 2.9v22.2c0 1.8 1 5 4.1 5h3.4v3.1h-23.1v-3.1h3c2.5 0 5.2-2.2 5.2-5v-53.7c0-2.5-1.8-4-4.6-4h-3.6v-3.7h22.4v3.7h-2.8c-3.1 0-4 2.1-4 4v23.3h5.5c7.6 0 12.3-4.5 14.8-8 3.3-4.5 9.2-14.7 9.4-15.2 0.7-1.3 0.9-2 0.9-2.8 0-1.2-0.7-1.9-2.6-2h-1.5v-3h19.5v3c-1.4 0-1.5 0-1.5 0-3.6 0-6 3.4-7.9 6.4-3 4.6-13.2 23.2-19.9 23.6 4.6 0.9 12.3 6.7 16.4 15.6 5.5 11.2 10.1 16.8 14.1 16.8z"/><path class="G" d="m451.3 270.2c-3.4 0-6.7-2.1-6.7-5.7 0-3.8 3.2-6.1 6.7-6.1 4.1 0 6.8 2.3 6.8 6.1 0 3.7-3 5.7-6.8 5.7z"/><path class="H" d="m558 270.2c-3.4 0-6.6-2.1-6.6-5.7 0-3.8 3.1-6.1 6.6-6.1 4.2 0 6.8 2.3 6.8 6.1 0 3.7-3 5.7-6.8 5.7z"/><path class="I" d="m326.8 203.8h-112.9l25.5 25.6h61.9z"/><path class="J" d="m326.8 405h-112.9l25.5-25.5h61.9z"/><path class="K" d="m307.1 303.9l24.6-33.7v-61.4l-25.5 25.5v25.3l-17.4 26z"/><path class="L" d="m284.6 291.2h-10l-0.1 0.1h-40v-57l-25.5-25.2v191l25.5-25.4v-57.8h39.6l32.1 32.1v25.7l25.5 25.4v-60.7l-33.5-34.6z"/></svg>